<svg xmlns="http://www.w3.org/2000/svg" viewBox="0 0 17.149 17.106">
  <defs>
    <style>
      .cls-1 {
        fill: #fff;
      }
    </style>
  </defs>
  <g id="_002-edit-picture" data-name="002-edit-picture" transform="translate(0 -0.5)">
    <path id="Pfad_98" data-name="Pfad 98" class="cls-1" d="M42.336,56.63l.007.006h0a.316.316,0,0,0,.039.023l.008,0a.319.319,0,0,0,.04.016h0a.318.318,0,0,0,.042.01l.011,0,.042,0H53.516a.324.324,0,0,0,.324-.324V47.338a.324.324,0,0,0-.324-.324H42.532a.324.324,0,0,0-.324.324v9.036s0,.006,0,.01,0,.012,0,.018,0,.011,0,.016l0,.015,0,.017,0,.013.005.017,0,.013.007.016.007.014.007.013.009.014.008.012.011.014.009.011.012.013.011.011.012.011ZM50.2,56.05l-.842-1.212,1.146-1.482,2.127,2.694H50.2Zm-.788,0H43.162l3.175-4.43Zm3.777-8.388v8.052l-2.434-3.083a.324.324,0,0,0-.254-.123h0a.324.324,0,0,0-.254.126l-1.274,1.649-2.368-3.407a.324.324,0,0,0-.263-.139h0a.324.324,0,0,0-.263.135l-3.222,4.5V47.661Z" transform="translate(-40.387 -44.507)"/>
    <path id="Pfad_99" data-name="Pfad 99" class="cls-1" d="M170.839,75.236h.386a1.232,1.232,0,0,0,.124.283l-.278.278a.324.324,0,0,0,.458.458l.286-.286a1.232,1.232,0,0,0,.275.112v.407a.324.324,0,0,0,.647,0V76.08a1.229,1.229,0,0,0,.275-.112l.286.286a.324.324,0,1,0,.458-.458l-.278-.278a1.232,1.232,0,0,0,.124-.283h.386a.324.324,0,1,0,0-.647h-.371a1.23,1.23,0,0,0-.119-.3l.257-.257a.324.324,0,0,0-.458-.458l-.249.249a1.234,1.234,0,0,0-.312-.132v-.349a.324.324,0,0,0-.647,0v.349a1.233,1.233,0,0,0-.312.132l-.249-.249a.324.324,0,1,0-.458.458l.257.257a1.232,1.232,0,0,0-.119.3h-.371a.324.324,0,0,0,0,.647Zm1.575-.945a.593.593,0,1,1-.593.593A.593.593,0,0,1,172.414,74.291Z" transform="translate(-163.16 -69.386)"/>
    <path id="Pfad_100" data-name="Pfad 100" class="cls-1" d="M15.273,13.27V.824A.324.324,0,0,0,14.95.5H.324A.324.324,0,0,0,0,.824V15.45a.324.324,0,0,0,.324.324h12.5a2.179,2.179,0,1,0,2.454-2.5ZM.647,1.147H14.626V13.277a2.183,2.183,0,0,0-1.813,1.85H.647ZM14.971,16.959A1.532,1.532,0,1,1,16.5,15.428,1.533,1.533,0,0,1,14.971,16.959Z" transform="translate(0)"/>
    <circle id="Ellipse_20" data-name="Ellipse 20" class="cls-1" cx="0.216" cy="0.216" r="0.216" transform="translate(13.935 15.212)"/>
    <circle id="Ellipse_21" data-name="Ellipse 21" class="cls-1" cx="0.216" cy="0.216" r="0.216" transform="translate(14.755 15.212)"/>
    <circle id="Ellipse_22" data-name="Ellipse 22" class="cls-1" cx="0.216" cy="0.216" r="0.216" transform="translate(15.575 15.212)"/>
  </g>
</svg>
