<svg xmlns="http://www.w3.org/2000/svg" viewBox="0 0 11.892 15.5">
  <defs>
    <style>
      .cls-1 {
        fill: #fff;
      }
    </style>
  </defs>
  <g id="_001-new-page" data-name="001-new-page" transform="translate(-49)">
    <path id="Pfad_95" data-name="Pfad 95" class="cls-1" d="M105.814,107.694a.276.276,0,0,0,.276-.276v-1.141a.276.276,0,0,0-.276-.276H99.776a.276.276,0,0,0-.276.276v1.141a.276.276,0,0,0,.276.276Zm-5.762-1.141h5.486v.589h-5.486Z" transform="translate(-48.641 -102.097)"/>
    <path id="Pfad_96" data-name="Pfad 96" class="cls-1" d="M60.892,1.859a1.859,1.859,0,0,0-3.7-.276H49.276A.276.276,0,0,0,49,1.859V15.224a.276.276,0,0,0,.276.276h6.765l.017,0h.009l.02,0,.007,0,.019-.007.006,0,.017-.008.007,0,.015-.009.008,0,.014-.01.008-.006.019-.017h0L59.228,12.4h0a.275.275,0,0,0,.024-.028l0-.007a.273.273,0,0,0,.019-.031v0a.272.272,0,0,0,.014-.032l0-.007a.28.28,0,0,0,.01-.035h0a.271.271,0,0,0,0-.034s0-.006,0-.01,0-.006,0-.009V3.7A1.862,1.862,0,0,0,60.892,1.859Zm-11.34.276h7.642A1.863,1.863,0,0,0,58.757,3.7v8.231H56.014a.276.276,0,0,0-.276.276v2.743H49.552ZM56.29,14.557V12.481h2.076ZM59.033,3.166A1.307,1.307,0,1,1,60.34,1.859,1.308,1.308,0,0,1,59.033,3.166Z"/>
    <path id="Pfad_97" data-name="Pfad 97" class="cls-1" d="M296.675,24.7h-.423v-.423a.276.276,0,1,0-.552,0V24.7h-.423a.276.276,0,0,0,0,.552h.423v.423a.276.276,0,1,0,.552,0v-.423h.423a.276.276,0,1,0,0-.552Z" transform="translate(-236.943 -23.116)"/>
  </g>
</svg>
