<svg id="alarm" xmlns="http://www.w3.org/2000/svg" viewBox="0 0 37.794 43">
  <defs>
    <style>
      .cls-1 {
        fill: #777;
      }
    </style>
  </defs>
  <path id="Pfad_45" data-name="Pfad 45" class="cls-1" d="M40.893,35.409A17.477,17.477,0,0,1,35.4,22.673V15.641A11.376,11.376,0,0,0,28.734,5.309,15.717,15.717,0,0,0,26,4.358V3.909a3.909,3.909,0,0,0-7.818,0v.517a15.48,15.48,0,0,0-2.46.89A11.828,11.828,0,0,0,8.8,15.636v7.036A17.346,17.346,0,0,1,3.56,35.409a.782.782,0,0,0,.418,1.325l7.42,1.281c1.382.238,2.655.434,3.866.595a7.73,7.73,0,0,0,13.943,0c1.206-.16,2.473-.355,3.847-.593l7.419-1.281a.782.782,0,0,0,.419-1.324ZM19.747,3.909a2.345,2.345,0,0,1,4.691,0v.142a15.545,15.545,0,0,0-4.691.037Zm2.489,37.527a6.266,6.266,0,0,1-5.017-2.592,48.422,48.422,0,0,0,5.008.271,48.158,48.158,0,0,0,5.027-.273A6.268,6.268,0,0,1,22.236,41.436Zm10.553-4.962c-1.5.259-2.876.469-4.175.635h0c-.572.073-1.129.136-1.674.191l-.017,0c-.5.05-.985.09-1.467.125l-.274.019c-.417.027-.83.049-1.241.065-.084,0-.169.008-.253.01-.973.033-1.932.033-2.9,0l-.26-.011q-.607-.023-1.225-.064L19,37.426c-.469-.034-.944-.073-1.429-.121l-.05,0c-.541-.054-1.094-.117-1.662-.189h-.007c-1.3-.165-2.684-.377-4.191-.636L5.674,35.44a18.817,18.817,0,0,0,4.691-12.767V15.641a10.236,10.236,0,0,1,6.013-8.906,13.977,13.977,0,0,1,2.734-.925l.024,0a14.214,14.214,0,0,1,5.926-.053c.01,0,.02,0,.03,0a14.14,14.14,0,0,1,2.99.976,9.924,9.924,0,0,1,5.755,8.906v7.036a19.023,19.023,0,0,0,4.936,12.768Z" transform="translate(-3.329)"/>
  <path id="Pfad_46" data-name="Pfad 46" class="cls-1" d="M29.728,11.048a11.946,11.946,0,0,0-9.749,0c-1.716.791-4.627,3.106-4.65,6.766a.782.782,0,0,0,.777.787h0a.782.782,0,0,0,.782-.777,6.306,6.306,0,0,1,3.741-5.355,10.35,10.35,0,0,1,8.443,0,.782.782,0,1,0,.651-1.421Z" transform="translate(-5.947 -2.184)"/>
</svg>
