<svg xmlns="http://www.w3.org/2000/svg" viewBox="0 0 11.02 15.5">
  <defs>
    <style>
      .cls-1 {
        fill: #fff;
      }
    </style>
  </defs>
  <path id="_014-bold-text" data-name="014-bold-text" class="cls-1" d="M49.33,7.407A3.871,3.871,0,0,0,50.9,4.144V4.1a3.786,3.786,0,0,0-1.027-2.659l-.01-.01A5.445,5.445,0,0,0,45.87,0H41.152a.5.5,0,0,0-.5.5V15a.5.5,0,0,0,.5.5h4.977A6.456,6.456,0,0,0,50.1,14.351a4.013,4.013,0,0,0,1.578-3.305V11A3.8,3.8,0,0,0,49.33,7.407Zm-3.162,5.629H43.2V8.909H45.89a4.506,4.506,0,0,1,2.486.566,1.609,1.609,0,0,1,.717,1.425v.041C49.093,12.833,47.048,13.037,46.168,13.037Zm-.558-6.57H43.2v-4h2.532c1.644,0,2.587.68,2.587,1.867v.041C48.318,6.194,46.621,6.467,45.61,6.467Z" transform="translate(-40.656)"/>
</svg>
