<svg xmlns="http://www.w3.org/2000/svg" viewBox="0 0 11.73 15.5">
  <defs>
    <style>
      .cls-1 {
        fill: #fff;
      }
    </style>
  </defs>
  <g id="_004-brush" data-name="004-brush" transform="translate(-68.764)">
    <path id="Pfad_104" data-name="Pfad 104" class="cls-1" d="M100.272,7.113c0-.011,0-.022,0-.034A2.557,2.557,0,0,0,97.725,4.6H96.513V1.478a1.478,1.478,0,1,0-2.956,0V4.6H92.346A2.557,2.557,0,0,0,89.8,7.08c0,.011,0,.022,0,.033v.672a.349.349,0,0,1,0,.072v5.976c0,.01,0,.02,0,.029s0,.019,0,.029a.911.911,0,0,1-.909.91.349.349,0,1,0,0,.7h9.773a1.61,1.61,0,0,0,1.608-1.608c0-.01,0-.02,0-.029s0-.019,0-.029V7.857a.349.349,0,0,1,0-.072Zm-.7,1.634H90.5V8.134h9.075v.612Zm-9.075.7h9.075v1.992c-1.08-.642-2.725-.952-4.961.417l-.022.014c-.092.056-.19.126-.294.2-.66.472-1.267.821-2.02.307a1.935,1.935,0,0,0-1.684-.368c-.033.01-.064.021-.094.032V9.445Zm0-2.307c0-.007,0-.013,0-.02A1.856,1.856,0,0,1,92.346,5.3h1.561a.349.349,0,0,0,.349-.349V1.478a.779.779,0,1,1,1.559,0V4.952a.349.349,0,0,0,.349.349h1.561a1.856,1.856,0,0,1,1.847,1.818c0,.007,0,.014,0,.02v.3H90.5ZM98.664,14.8H90.215a1.6,1.6,0,0,0,.283-.91c0-.01,0-.02,0-.029s0-.019,0-.029v-1a.807.807,0,0,1,.325-.169,1.317,1.317,0,0,1,1.06.284,1.985,1.985,0,0,0,1.137.377,2.972,2.972,0,0,0,1.684-.692c.1-.07.181-.13.251-.173l.023-.014a5.892,5.892,0,0,1,1.819-.77,3.251,3.251,0,0,1,2.777.6v1.554c0,.01,0,.02,0,.029s0,.019,0,.029A.911.911,0,0,1,98.664,14.8Z" transform="translate(-19.777)"/>
    <circle id="Ellipse_23" data-name="Ellipse 23" class="cls-1" cx="0.223" cy="0.223" r="0.223" transform="translate(76.001 1.015)"/>
  </g>
</svg>
