<svg xmlns="http://www.w3.org/2000/svg" viewBox="0 0 13.521 15.5">
  <defs>
    <style>
      .cls-1 {
        fill: #fff;
      }
    </style>
  </defs>
  <g id="_003-color" data-name="003-color" transform="translate(62.75 -168)">
    <path id="Pfad_101" data-name="Pfad 101" class="cls-1" d="M97.758,131.265c-.1-.456-.747-.742-2.18-.967a35.118,35.118,0,0,0-9.135,0c-1.433.225-2.085.511-2.18.967a.385.385,0,0,0-.013.1v12.75c0,.529.635.845,2.193,1.09a35.113,35.113,0,0,0,9.135,0c1.558-.245,2.193-.561,2.193-1.09v-12.75A.384.384,0,0,0,97.758,131.265Zm-10.883-.251a35.3,35.3,0,0,1,8.272,0,7.2,7.2,0,0,1,1.675.374,7.2,7.2,0,0,1-1.675.374,35.3,35.3,0,0,1-8.272,0,7.2,7.2,0,0,1-1.675-.374A7.2,7.2,0,0,1,86.874,131.014Zm10.071,1.154a5.989,5.989,0,0,1-11.869,0,8.2,8.2,0,0,0,1.367.309,35.115,35.115,0,0,0,9.135,0A8.2,8.2,0,0,0,96.945,132.169Zm-1.8,12.317a35.3,35.3,0,0,1-8.272,0,5.08,5.08,0,0,1-1.853-.463V134.5A6.758,6.758,0,0,0,97,134.5v9.528A5.082,5.082,0,0,1,95.146,144.486Z" transform="translate(-147 38)"/>
  </g>
</svg>
