<svg id="communication" xmlns="http://www.w3.org/2000/svg" viewBox="0 0 24.523 24.523">
  <defs>
    <style>
      .cls-1 {
        fill: #60a7fc;
      }
    </style>
  </defs>
  <g id="Gruppe_122" data-name="Gruppe 122" transform="translate(7.28 10.342)">
    <g id="Gruppe_121" data-name="Gruppe 121">
      <path id="Pfad_72" data-name="Pfad 72" class="cls-1" d="M161.924,225.338l-.383-.766a.387.387,0,0,0-.192-.18l-2.544-1.1-.2-.635a3.146,3.146,0,0,0,1.063-2.511V217.08a.383.383,0,0,0-.112-.271,4.2,4.2,0,0,0-5.14,0,.383.383,0,0,0-.112.271v3.065a3.146,3.146,0,0,0,1.062,2.511l-.2.635-2.542,1.1a.387.387,0,0,0-.192.18l-.383.766a.383.383,0,0,0-.04.171v4.6h.766V225.6l.28-.561,2.307-1,1.245,1.245v1.374h.766v-1.374l1.245-1.245,2.307,1,.28.561v4.508h.766v-4.6A.383.383,0,0,0,161.924,225.338Zm-6.859-8.08a3.548,3.548,0,0,1,3.832,0v1.682c-.192-.05-.383-.146-.383-.328a.383.383,0,0,0-.383-.383h-2.3a.383.383,0,0,0-.383.383c0,.182-.192.277-.383.328Zm1.916,7.326-1.087-1.087.146-.453a2.747,2.747,0,0,0,1.882,0l.146.453Zm0-2.14c-1.414,0-1.916-1.238-1.916-2.3v-.419a1.361,1.361,0,0,0,1.08-.73h1.671a1.361,1.361,0,0,0,1.08.73v.419C158.9,221.206,158.4,222.444,156.981,222.444Z" transform="translate(-152 -215.927)"/>
    </g>
  </g>
  <g id="Gruppe_124" data-name="Gruppe 124" transform="translate(9.196 22.607)">
    <g id="Gruppe_123" data-name="Gruppe 123">
      <rect id="Rechteck_15" data-name="Rechteck 15" class="cls-1" width="0.766" height="1.916"/>
    </g>
  </g>
  <g id="Gruppe_126" data-name="Gruppe 126" transform="translate(14.561 22.607)">
    <g id="Gruppe_125" data-name="Gruppe 125">
      <rect id="Rechteck_16" data-name="Rechteck 16" class="cls-1" width="0.766" height="1.916"/>
    </g>
  </g>
  <g id="Gruppe_128" data-name="Gruppe 128" transform="translate(15.71 5.748)">
    <g id="Gruppe_127" data-name="Gruppe 127">
      <path id="Pfad_73" data-name="Pfad 73" class="cls-1" d="M336.047,120h-6.9v.766h6.9v8.43h-3.832a.383.383,0,0,0-.271.112l-1.645,1.645v-1.374a.383.383,0,0,0-.383-.383H328v.766h1.533v1.916a.383.383,0,0,0,.236.354.378.378,0,0,0,.147.029.383.383,0,0,0,.271-.112l2.187-2.187h3.673a.766.766,0,0,0,.766-.766v-8.43A.766.766,0,0,0,336.047,120Z" transform="translate(-328 -120)"/>
    </g>
  </g>
  <g id="Gruppe_130" data-name="Gruppe 130">
    <g id="Gruppe_129" data-name="Gruppe 129">
      <path id="Pfad_74" data-name="Pfad 74" class="cls-1" d="M15.327,0H.766A.766.766,0,0,0,0,.766V9.2a.766.766,0,0,0,.766.766H3.29l2.187,2.187a.383.383,0,0,0,.271.112.378.378,0,0,0,.147-.029.383.383,0,0,0,.236-.354V9.963h9.2a.766.766,0,0,0,.766-.766V.766A.766.766,0,0,0,15.327,0Zm0,9.2H5.748a.383.383,0,0,0-.383.383v1.374L3.719,9.308A.383.383,0,0,0,3.449,9.2H.766V.766H15.327Z"/>
    </g>
  </g>
  <g id="Gruppe_132" data-name="Gruppe 132" transform="translate(1.533 1.533)">
    <g id="Gruppe_131" data-name="Gruppe 131">
      <path id="Pfad_75" data-name="Pfad 75" class="cls-1" d="M44.645,32H32.383a.383.383,0,0,0-.383.383v1.533a.383.383,0,0,0,.383.383H44.645a.383.383,0,0,0,.383-.383V32.383A.383.383,0,0,0,44.645,32Zm-.383,1.533h-11.5v-.766h11.5Z" transform="translate(-32 -32)"/>
    </g>
  </g>
  <g id="Gruppe_134" data-name="Gruppe 134" transform="translate(3.065 4.598)">
    <g id="Gruppe_133" data-name="Gruppe 133">
      <rect id="Rechteck_17" data-name="Rechteck 17" class="cls-1" width="9.963" height="0.766"/>
    </g>
  </g>
  <g id="Gruppe_136" data-name="Gruppe 136" transform="translate(13.794 4.598)">
    <g id="Gruppe_135" data-name="Gruppe 135">
      <rect id="Rechteck_18" data-name="Rechteck 18" class="cls-1" width="0.766" height="0.766"/>
    </g>
  </g>
  <g id="Gruppe_138" data-name="Gruppe 138" transform="translate(1.533 6.131)">
    <g id="Gruppe_137" data-name="Gruppe 137">
      <rect id="Rechteck_19" data-name="Rechteck 19" class="cls-1" width="13.028" height="0.766"/>
    </g>
  </g>
  <g id="Gruppe_140" data-name="Gruppe 140" transform="translate(1.533 7.663)">
    <g id="Gruppe_139" data-name="Gruppe 139">
      <rect id="Rechteck_20" data-name="Rechteck 20" class="cls-1" width="13.028" height="0.766"/>
    </g>
  </g>
  <g id="Gruppe_142" data-name="Gruppe 142" transform="translate(17.243 7.28)">
    <g id="Gruppe_141" data-name="Gruppe 141">
      <path id="Pfad_76" data-name="Pfad 76" class="cls-1" d="M365.364,152H360v.766h4.981v.766H360v.766h5.364a.383.383,0,0,0,.383-.383v-1.533A.383.383,0,0,0,365.364,152Z" transform="translate(-360 -152)"/>
    </g>
  </g>
  <g id="Gruppe_144" data-name="Gruppe 144" transform="translate(22.224 10.346)">
    <g id="Gruppe_143" data-name="Gruppe 143">
      <rect id="Rechteck_21" data-name="Rechteck 21" class="cls-1" width="0.766" height="0.766"/>
    </g>
  </g>
  <g id="Gruppe_146" data-name="Gruppe 146" transform="translate(17.243 10.346)">
    <g id="Gruppe_145" data-name="Gruppe 145">
      <rect id="Rechteck_22" data-name="Rechteck 22" class="cls-1" width="4.215" height="0.766"/>
    </g>
  </g>
  <g id="Gruppe_148" data-name="Gruppe 148" transform="translate(16.093 11.878)">
    <g id="Gruppe_147" data-name="Gruppe 147">
      <rect id="Rechteck_23" data-name="Rechteck 23" class="cls-1" width="6.897" height="0.766"/>
    </g>
  </g>
  <g id="Gruppe_150" data-name="Gruppe 150" transform="translate(16.093 13.411)">
    <g id="Gruppe_149" data-name="Gruppe 149">
      <rect id="Rechteck_24" data-name="Rechteck 24" class="cls-1" width="6.897" height="0.766"/>
    </g>
  </g>
  <g id="Gruppe_152" data-name="Gruppe 152" transform="translate(4.598 13.028)">
    <g id="Gruppe_151" data-name="Gruppe 151">
      <path id="Pfad_77" data-name="Pfad 77" class="cls-1" d="M97.15,272a1.15,1.15,0,1,0,1.15,1.15A1.15,1.15,0,0,0,97.15,272Zm0,1.533a.383.383,0,1,1,.383-.383A.383.383,0,0,1,97.15,273.533Z" transform="translate(-96 -272)"/>
    </g>
  </g>
  <g id="Gruppe_154" data-name="Gruppe 154" transform="translate(18.009 18.392)">
    <g id="Gruppe_153" data-name="Gruppe 153">
      <path id="Pfad_78" data-name="Pfad 78" class="cls-1" d="M377.15,384a1.15,1.15,0,1,0,1.15,1.15A1.15,1.15,0,0,0,377.15,384Zm0,1.533a.383.383,0,1,1,.383-.383A.383.383,0,0,1,377.15,385.533Z" transform="translate(-376 -384)"/>
    </g>
  </g>
</svg>
