<svg id="_005-link" data-name="005-link" xmlns="http://www.w3.org/2000/svg" viewBox="0 0 15.5 15.5">
  <defs>
    <style>
      .cls-1 {
        fill: #fff;
      }
    </style>
  </defs>
  <path id="Pfad_105" data-name="Pfad 105" class="cls-1" d="M108.793,1.016l-.16-.16a2.921,2.921,0,0,0-4.131,0l-2.565,2.565a.371.371,0,0,0,.525.525l2.565-2.565a2.18,2.18,0,0,1,3.082,0l.16.16a2.182,2.182,0,0,1,0,3.082L103.62,9.272a2.182,2.182,0,0,1-3.082,0l-.16-.16A2.168,2.168,0,0,1,99.78,8a.371.371,0,0,0-.728.144,2.908,2.908,0,0,0,.8,1.5l.16.16a2.925,2.925,0,0,0,4.132,0l4.649-4.649A2.925,2.925,0,0,0,108.793,1.016Z" transform="translate(-94.147)"/>
  <path id="Pfad_106" data-name="Pfad 106" class="cls-1" d="M7.188,104.791l-2.565,2.565a2.182,2.182,0,0,1-3.082,0l-.16-.16a2.182,2.182,0,0,1,0-3.082l4.649-4.649a2.182,2.182,0,0,1,3.082,0l.16.16a2.169,2.169,0,0,1,.6,1.115.371.371,0,1,0,.728-.144,2.908,2.908,0,0,0-.8-1.5l-.16-.16a2.925,2.925,0,0,0-4.132,0L.856,103.589a2.921,2.921,0,0,0,0,4.131l.16.16a2.925,2.925,0,0,0,4.131,0l2.565-2.565a.371.371,0,0,0-.525-.525Z" transform="translate(0 -93.235)"/>
</svg>
