<svg xmlns="http://www.w3.org/2000/svg" viewBox="0 0 22.883 22.697">
  <defs>
    <style>
      .cls-1 {
        fill: #60a7fc;
      }
    </style>
  </defs>
  <g id="mechanical" transform="translate(0 -0.853)">
    <g id="Gruppe_15" data-name="Gruppe 15" transform="translate(5.916 18.804)">
      <g id="Gruppe_14" data-name="Gruppe 14">
        <path id="Pfad_8" data-name="Pfad 8" class="cls-1" d="M57.529,166.724a8.113,8.113,0,0,1-2.681-1.137.372.372,0,0,0-.408.622,8.857,8.857,0,0,0,2.926,1.241.372.372,0,1,0,.163-.726Z" transform="translate(-54.271 -165.526)"/>
      </g>
    </g>
    <g id="Gruppe_17" data-name="Gruppe 17" transform="translate(2.207 13.304)">
      <g id="Gruppe_16" data-name="Gruppe 16">
        <path id="Pfad_9" data-name="Pfad 9" class="cls-1" d="M22.06,118.1a8.106,8.106,0,0,1-1.073-2.723.372.372,0,0,0-.73.143,8.851,8.851,0,0,0,1.17,2.972.372.372,0,1,0,.632-.393Z" transform="translate(-20.25 -115.075)"/>
      </g>
    </g>
    <g id="Gruppe_19" data-name="Gruppe 19" transform="translate(2.291 6.926)">
      <g id="Gruppe_18" data-name="Gruppe 18">
        <path id="Pfad_10" data-name="Pfad 10" class="cls-1" d="M22.768,56.629a.372.372,0,0,0-.516.1,8.868,8.868,0,0,0-1.222,2.793.372.372,0,1,0,.723.177,8.126,8.126,0,0,1,1.12-2.559A.372.372,0,0,0,22.768,56.629Z" transform="translate(-21.02 -56.567)"/>
      </g>
    </g>
    <g id="Gruppe_21" data-name="Gruppe 21" transform="translate(6.075 3.281)">
      <g id="Gruppe_20" data-name="Gruppe 20">
        <path id="Pfad_11" data-name="Pfad 11" class="cls-1" d="M59.164,23.419a.372.372,0,0,0-.443-.284A8.862,8.862,0,0,0,55.9,24.283a.372.372,0,1,0,.395.631,8.124,8.124,0,0,1,2.585-1.052A.372.372,0,0,0,59.164,23.419Z" transform="translate(-55.725 -23.126)"/>
      </g>
    </g>
    <g id="Gruppe_23" data-name="Gruppe 23" transform="translate(12.43 3.281)">
      <g id="Gruppe_22" data-name="Gruppe 22">
        <path id="Pfad_12" data-name="Pfad 12" class="cls-1" d="M117.27,24.263a8.859,8.859,0,0,0-2.795-1.132.372.372,0,0,0-.158.727,8.105,8.105,0,0,1,2.561,1.037.372.372,0,1,0,.392-.632Z" transform="translate(-114.024 -23.123)"/>
      </g>
    </g>
    <g id="Gruppe_25" data-name="Gruppe 25" transform="translate(17.735 6.909)">
      <g id="Gruppe_24" data-name="Gruppe 24">
        <path id="Pfad_13" data-name="Pfad 13" class="cls-1" d="M164.615,59.422a8.864,8.864,0,0,0-1.242-2.843.372.372,0,1,0-.62.412,8.119,8.119,0,0,1,1.138,2.605.372.372,0,0,0,.361.285.362.362,0,0,0,.087-.011A.372.372,0,0,0,164.615,59.422Z" transform="translate(-162.691 -56.412)"/>
      </g>
    </g>
    <g id="Gruppe_28" data-name="Gruppe 28" transform="translate(5.768 6.806)">
      <g id="Gruppe_27" data-name="Gruppe 27">
        <g id="Gruppe_26" data-name="Gruppe 26">
          <path id="Pfad_14" data-name="Pfad 14" class="cls-1" d="M86.121,86.9A1.783,1.783,0,1,0,87.9,88.681,1.785,1.785,0,0,0,86.121,86.9Zm0,2.822a1.039,1.039,0,1,1,1.039-1.039A1.04,1.04,0,0,1,86.121,89.72Z" transform="translate(-80.912 -83.472)"/>
          <path id="Pfad_15" data-name="Pfad 15" class="cls-1" d="M62.548,59.5h-.184a4.353,4.353,0,0,0-.411-.988l.131-.131a.782.782,0,0,0,0-1.105l-.561-.561a.783.783,0,0,0-1.106,0l-.131.131a4.348,4.348,0,0,0-.988-.411v-.184a.783.783,0,0,0-.782-.782h-.793a.783.783,0,0,0-.782.782v.184a4.333,4.333,0,0,0-.988.411l-.131-.131a.781.781,0,0,0-1.106,0l-.561.561a.781.781,0,0,0,0,1.106l.131.131a4.342,4.342,0,0,0-.411.988h-.184a.783.783,0,0,0-.782.782v.793a.783.783,0,0,0,.782.782h.184a4.357,4.357,0,0,0,.411.988l-.131.131a.781.781,0,0,0,0,1.106l.561.561a.783.783,0,0,0,1.105,0l.131-.131a4.342,4.342,0,0,0,.988.411V65.1a.783.783,0,0,0,.782.782h.793A.783.783,0,0,0,59.3,65.1v-.184a4.339,4.339,0,0,0,.988-.411l.131.131a.783.783,0,0,0,1.105,0l.561-.561a.783.783,0,0,0,0-1.105l-.131-.131a4.34,4.34,0,0,0,.411-.988h.184a.783.783,0,0,0,.782-.782v-.793A.783.783,0,0,0,62.548,59.5Zm.037,1.575a.038.038,0,0,1-.038.038H62.07a.372.372,0,0,0-.365.3,3.622,3.622,0,0,1-.534,1.284.372.372,0,0,0,.047.469l.339.339a.038.038,0,0,1,0,.053L61,64.114a.038.038,0,0,1-.053,0l-.339-.339a.372.372,0,0,0-.468-.047,3.629,3.629,0,0,1-1.284.534.372.372,0,0,0-.3.365V65.1a.038.038,0,0,1-.038.038h-.793a.038.038,0,0,1-.038-.038v-.477a.372.372,0,0,0-.3-.365,3.622,3.622,0,0,1-1.284-.534.371.371,0,0,0-.468.047l-.339.339a.038.038,0,0,1-.053,0l-.561-.561a.042.042,0,0,1,0-.053l.339-.339a.372.372,0,0,0,.047-.468,3.626,3.626,0,0,1-.534-1.284.372.372,0,0,0-.365-.3h-.477a.038.038,0,0,1-.038-.038V60.28a.038.038,0,0,1,.038-.038h.477a.372.372,0,0,0,.365-.3,3.625,3.625,0,0,1,.534-1.284.372.372,0,0,0-.047-.468l-.339-.339a.043.043,0,0,1,0-.053l.561-.561a.042.042,0,0,1,.053,0l.339.339a.372.372,0,0,0,.468.047,3.629,3.629,0,0,1,1.284-.534.372.372,0,0,0,.3-.365v-.477a.038.038,0,0,1,.038-.038h.793a.038.038,0,0,1,.038.038v.477a.372.372,0,0,0,.3.365,3.625,3.625,0,0,1,1.284.534.371.371,0,0,0,.468-.047l.339-.339a.038.038,0,0,1,.053,0l.561.561a.038.038,0,0,1,0,.053l-.339.339a.372.372,0,0,0-.047.469,3.621,3.621,0,0,1,.534,1.284.372.372,0,0,0,.365.3h.477a.038.038,0,0,1,.038.038Z" transform="translate(-52.911 -55.467)"/>
        </g>
      </g>
    </g>
    <g id="Gruppe_30" data-name="Gruppe 30" transform="translate(8.744 0.853)">
      <g id="Gruppe_29" data-name="Gruppe 29" transform="translate(0 0)">
        <path id="Pfad_16" data-name="Pfad 16" class="cls-1" d="M82.446.853a2.233,2.233,0,1,0,2.233,2.233A2.235,2.235,0,0,0,82.446.853Zm0,3.721a1.488,1.488,0,1,1,1.488-1.488A1.49,1.49,0,0,1,82.446,4.574Z" transform="translate(-80.213 -0.853)"/>
      </g>
    </g>
    <g id="Gruppe_32" data-name="Gruppe 32" transform="translate(8.744 18.341)">
      <g id="Gruppe_31" data-name="Gruppe 31">
        <path id="Pfad_17" data-name="Pfad 17" class="cls-1" d="M82.446,161.28a2.233,2.233,0,1,0,2.233,2.233A2.235,2.235,0,0,0,82.446,161.28Zm0,3.721a1.488,1.488,0,1,1,1.488-1.488A1.49,1.49,0,0,1,82.446,165Z" transform="translate(-80.213 -161.28)"/>
      </g>
    </g>
    <g id="Gruppe_34" data-name="Gruppe 34" transform="translate(17.488 9.597)">
      <g id="Gruppe_33" data-name="Gruppe 33">
        <path id="Pfad_18" data-name="Pfad 18" class="cls-1" d="M162.66,81.067a2.233,2.233,0,1,0,2.233,2.233A2.235,2.235,0,0,0,162.66,81.067Zm0,3.721a1.488,1.488,0,1,1,1.488-1.488A1.49,1.49,0,0,1,162.66,84.788Z" transform="translate(-160.427 -81.067)"/>
      </g>
    </g>
    <g id="Gruppe_36" data-name="Gruppe 36" transform="translate(0 9.597)">
      <g id="Gruppe_35" data-name="Gruppe 35">
        <path id="Pfad_19" data-name="Pfad 19" class="cls-1" d="M2.233,81.067A2.233,2.233,0,1,0,4.465,83.3,2.235,2.235,0,0,0,2.233,81.067Zm0,3.721A1.488,1.488,0,1,1,3.721,83.3,1.49,1.49,0,0,1,2.233,84.788Z" transform="translate(0 -81.067)"/>
      </g>
    </g>
    <g id="Gruppe_38" data-name="Gruppe 38" transform="translate(14.928 3.414)">
      <g id="Gruppe_37" data-name="Gruppe 37">
        <path id="Pfad_20" data-name="Pfad 20" class="cls-1" d="M140.754,25a2.232,2.232,0,1,0,.654,1.579A2.218,2.218,0,0,0,140.754,25Zm-.526,2.631a1.488,1.488,0,1,1,0-2.1A1.49,1.49,0,0,1,140.228,27.632Z" transform="translate(-136.944 -24.347)"/>
      </g>
    </g>
    <g id="Gruppe_40" data-name="Gruppe 40" transform="translate(2.561 15.78)">
      <g id="Gruppe_39" data-name="Gruppe 39">
        <path id="Pfad_21" data-name="Pfad 21" class="cls-1" d="M27.305,138.442a2.231,2.231,0,1,0,0,3.157A2.218,2.218,0,0,0,27.305,138.442Zm-.526,2.631a1.488,1.488,0,1,1,0-2.1A1.49,1.49,0,0,1,26.779,141.073Z" transform="translate(-23.494 -137.788)"/>
      </g>
    </g>
    <g id="Gruppe_42" data-name="Gruppe 42" transform="translate(2.561 3.415)">
      <g id="Gruppe_41" data-name="Gruppe 41">
        <path id="Pfad_22" data-name="Pfad 22" class="cls-1" d="M27.305,25.01a2.233,2.233,0,1,0,0,3.157A2.235,2.235,0,0,0,27.305,25.01Zm-.526,2.631a1.488,1.488,0,1,1,0-2.1A1.49,1.49,0,0,1,26.779,27.641Z" transform="translate(-23.494 -24.358)"/>
      </g>
    </g>
    <g id="Gruppe_44" data-name="Gruppe 44" transform="translate(18.79 19.829)">
      <g id="Gruppe_43" data-name="Gruppe 43">
        <path id="Pfad_23" data-name="Pfad 23" class="cls-1" d="M172.746,174.933a.372.372,0,0,0-.372.372v.744a.372.372,0,1,0,.744,0v-.744A.372.372,0,0,0,172.746,174.933Z" transform="translate(-172.374 -174.933)"/>
      </g>
    </g>
    <g id="Gruppe_46" data-name="Gruppe 46" transform="translate(18.79 16.109)">
      <g id="Gruppe_45" data-name="Gruppe 45" transform="translate(0 0)">
        <path id="Pfad_24" data-name="Pfad 24" class="cls-1" d="M172.746,140.8a.372.372,0,0,0-.372.372v1.86a.372.372,0,0,0,.744,0v-1.86A.372.372,0,0,0,172.746,140.8Z" transform="translate(-172.374 -140.8)"/>
      </g>
    </g>
    <g id="Gruppe_48" data-name="Gruppe 48" transform="translate(18.79 13.504)">
      <g id="Gruppe_47" data-name="Gruppe 47">
        <path id="Pfad_25" data-name="Pfad 25" class="cls-1" d="M172.746,116.907a.372.372,0,0,0-.372.372v.744a.372.372,0,1,0,.744,0v-.744A.372.372,0,0,0,172.746,116.907Z" transform="translate(-172.374 -116.907)"/>
      </g>
    </g>
    <g id="Gruppe_50" data-name="Gruppe 50" transform="translate(19.907 19.829)">
      <g id="Gruppe_49" data-name="Gruppe 49">
        <path id="Pfad_26" data-name="Pfad 26" class="cls-1" d="M182.986,174.933a.372.372,0,0,0-.372.372v.744a.372.372,0,1,0,.744,0v-.744A.372.372,0,0,0,182.986,174.933Z" transform="translate(-182.614 -174.933)"/>
      </g>
    </g>
    <g id="Gruppe_52" data-name="Gruppe 52" transform="translate(19.907 16.109)">
      <g id="Gruppe_51" data-name="Gruppe 51" transform="translate(0 0)">
        <path id="Pfad_27" data-name="Pfad 27" class="cls-1" d="M182.986,140.8a.372.372,0,0,0-.372.372v1.86a.372.372,0,0,0,.744,0v-1.86A.372.372,0,0,0,182.986,140.8Z" transform="translate(-182.614 -140.8)"/>
      </g>
    </g>
    <g id="Gruppe_54" data-name="Gruppe 54" transform="translate(19.907 13.504)">
      <g id="Gruppe_53" data-name="Gruppe 53">
        <path id="Pfad_28" data-name="Pfad 28" class="cls-1" d="M182.986,116.907a.372.372,0,0,0-.372.372v.744a.372.372,0,1,0,.744,0v-.744A.372.372,0,0,0,182.986,116.907Z" transform="translate(-182.614 -116.907)"/>
      </g>
    </g>
    <g id="Gruppe_56" data-name="Gruppe 56" transform="translate(16.558 20.202)">
      <g id="Gruppe_55" data-name="Gruppe 55">
        <path id="Pfad_29" data-name="Pfad 29" class="cls-1" d="M158.119,178.464a.372.372,0,0,0-.526-.018l-2.537,2.368-2.537-2.368a.372.372,0,0,0-.508.544l2.791,2.6a.372.372,0,0,0,.508,0l2.791-2.6A.372.372,0,0,0,158.119,178.464Z" transform="translate(-151.893 -178.346)"/>
      </g>
    </g>
  </g>
</svg>
