<svg xmlns="http://www.w3.org/2000/svg" viewBox="0 0 28.459 24.523">
  <defs>
    <style>
      .cls-1 {
        fill: #60a7fc;
      }
    </style>
  </defs>
  <g id="open-book" transform="translate(0 -35.404)">
    <g id="Gruppe_72" data-name="Gruppe 72" transform="translate(0 35.404)">
      <g id="Gruppe_71" data-name="Gruppe 71" transform="translate(0 0)">
        <path id="Pfad_37" data-name="Pfad 37" class="cls-1" d="M26.642,37.266V35.858a.454.454,0,0,0-.454-.454H16.046a2.269,2.269,0,0,0-1.817.91,2.269,2.269,0,0,0-1.817-.91H2.271a.454.454,0,0,0-.454.454v1.408A2.275,2.275,0,0,0,0,39.491V55.234a2.273,2.273,0,0,0,2.271,2.271H12a2.271,2.271,0,0,0,4.45,0h3.226a.454.454,0,1,0,0-.908H16.046a.454.454,0,0,0-.454.454,1.362,1.362,0,0,1-2.725,0,.454.454,0,0,0-.454-.454H2.271A1.364,1.364,0,0,1,.908,55.234V39.491a1.365,1.365,0,0,1,.908-1.284V53.418a.454.454,0,0,0,.454.454H12.413a1.364,1.364,0,0,1,1.362,1.362,2.265,2.265,0,0,0-1.362-.454H2.271a.454.454,0,0,0,0,.908H12.413a1.364,1.364,0,0,1,1.362,1.362.454.454,0,0,0,.908,0,1.364,1.364,0,0,1,1.362-1.362h3.635a.454.454,0,0,0,0-.908H16.046a2.259,2.259,0,0,0-1.362.455,1.364,1.364,0,0,1,1.362-1.364h5v5.6a.454.454,0,0,0,.631.418l1.261-.531,1.261.531a.454.454,0,0,0,.63-.418V57.505h1.362a2.273,2.273,0,0,0,2.271-2.271V39.491A2.275,2.275,0,0,0,26.642,37.266ZM13.775,53.419a2.259,2.259,0,0,0-1.362-.455H2.725V36.312h9.688a1.364,1.364,0,0,1,1.362,1.362Zm10.142,5.37-.807-.34a.455.455,0,0,0-.353,0l-.807.34V53.872h1.966Zm-7.872-5.825a2.259,2.259,0,0,0-1.362.455V37.675a1.364,1.364,0,0,1,1.362-1.362h9.688V52.964H16.046Zm11.5,2.271A1.364,1.364,0,0,1,26.188,56.6H24.826v-.908h1.362a.454.454,0,1,0,0-.908H24.826v-.908h1.362a.454.454,0,0,0,.454-.454V38.207a1.365,1.365,0,0,1,.908,1.284V55.234Z" transform="translate(0 -35.404)"/>
      </g>
    </g>
    <g id="Gruppe_74" data-name="Gruppe 74" transform="translate(4.239 49.331)">
      <g id="Gruppe_73" data-name="Gruppe 73">
        <path id="Pfad_38" data-name="Pfad 38" class="cls-1" d="M83.825,285.957H76.71a.454.454,0,1,0,0,.908h7.115a.454.454,0,1,0,0-.908Z" transform="translate(-76.256 -285.957)"/>
      </g>
    </g>
    <g id="Gruppe_76" data-name="Gruppe 76" transform="translate(4.239 46.757)">
      <g id="Gruppe_75" data-name="Gruppe 75" transform="translate(0 0)">
        <path id="Pfad_39" data-name="Pfad 39" class="cls-1" d="M83.825,239.66H76.71a.454.454,0,0,0,0,.908h7.115a.454.454,0,1,0,0-.908Z" transform="translate(-76.256 -239.66)"/>
      </g>
    </g>
    <g id="Gruppe_78" data-name="Gruppe 78" transform="translate(4.239 44.184)">
      <g id="Gruppe_77" data-name="Gruppe 77" transform="translate(0 0)">
        <path id="Pfad_40" data-name="Pfad 40" class="cls-1" d="M83.825,193.362H76.71a.454.454,0,1,0,0,.908h7.115a.454.454,0,1,0,0-.908Z" transform="translate(-76.256 -193.362)"/>
      </g>
    </g>
    <g id="Gruppe_80" data-name="Gruppe 80" transform="translate(4.239 41.61)">
      <g id="Gruppe_79" data-name="Gruppe 79" transform="translate(0 0)">
        <path id="Pfad_41" data-name="Pfad 41" class="cls-1" d="M83.825,147.064H76.71a.454.454,0,0,0,0,.908h7.115a.454.454,0,1,0,0-.908Z" transform="translate(-76.256 -147.064)"/>
      </g>
    </g>
    <g id="Gruppe_82" data-name="Gruppe 82" transform="translate(4.239 39.037)">
      <g id="Gruppe_81" data-name="Gruppe 81" transform="translate(0 0)">
        <path id="Pfad_42" data-name="Pfad 42" class="cls-1" d="M83.825,100.766H76.71a.454.454,0,1,0,0,.908h7.115a.454.454,0,1,0,0-.908Z" transform="translate(-76.256 -100.766)"/>
      </g>
    </g>
    <g id="Gruppe_84" data-name="Gruppe 84" transform="translate(16.197 49.331)">
      <g id="Gruppe_83" data-name="Gruppe 83">
        <path id="Pfad_43" data-name="Pfad 43" class="cls-1" d="M298.973,285.957h-7.115a.454.454,0,0,0,0,.908h7.115a.454.454,0,0,0,0-.908Z" transform="translate(-291.404 -285.957)"/>
      </g>
    </g>
    <g id="Gruppe_86" data-name="Gruppe 86" transform="translate(16.197 39.037)">
      <g id="Gruppe_85" data-name="Gruppe 85" transform="translate(0 0)">
        <path id="Pfad_44" data-name="Pfad 44" class="cls-1" d="M298.973,104.627a.454.454,0,0,0,.454-.454v-2.952a.454.454,0,0,0-.454-.454h-7.115a.454.454,0,0,0-.454.454v7.72a.454.454,0,0,0,.454.454h7.115a.454.454,0,0,0,.454-.454v-2.952a.454.454,0,1,0-.908,0v2.5h-6.206v-6.812h6.206v2.5A.454.454,0,0,0,298.973,104.627Z" transform="translate(-291.404 -100.767)"/>
      </g>
    </g>
  </g>
</svg>
