<svg xmlns="http://www.w3.org/2000/svg" viewBox="0 0 23.178 17.106">
  <defs>
    <style>
      .cls-1 {
        fill: #fff;
      }
    </style>
  </defs>
  <path id="_007-redo" data-name="007-redo" class="cls-1" d="M23.025,57.541a.523.523,0,0,0-.74,0l-1.278,1.278v-6a9.317,9.317,0,0,0-18.633-.035H.523a.523.523,0,1,0,0,1.047H5.269a.523.523,0,1,0,0-1.047H3.42a8.27,8.27,0,0,1,16.54.035v6l-1.278-1.278a.523.523,0,1,0-.74.74l2.171,2.171a.506.506,0,0,0,.039.035l.018.013.023.017.022.013.022.013.023.011.023.011.023.009.025.009.024.006.026.006.027,0,.023,0,.052,0,.052,0,.023,0,.028,0,.026-.006.024-.006.025-.009.023-.009.023-.011.023-.011.022-.013.022-.014L20.8,60.5l.018-.013q.02-.016.039-.035l2.171-2.171A.523.523,0,0,0,23.025,57.541Z" transform="translate(0 -43.5)"/>
</svg>
