<svg id="server" xmlns="http://www.w3.org/2000/svg" viewBox="0 0 34.731 34.731">
  <defs>
    <style>
      .cls-1 {
        fill: #fff;
      }
    </style>
  </defs>
  <path id="Pfad_79" data-name="Pfad 79" class="cls-1" d="M33.094,0H1.637A1.639,1.639,0,0,0,0,1.637V6.582A1.639,1.639,0,0,0,1.637,8.218H33.094a1.639,1.639,0,0,0,1.637-1.637V1.637A1.639,1.639,0,0,0,33.094,0Zm.528,6.582a.529.529,0,0,1-.528.528H1.637a.529.529,0,0,1-.528-.528V1.637a.529.529,0,0,1,.528-.528H33.094a.529.529,0,0,1,.528.528V6.582Z"/>
  <path id="Pfad_80" data-name="Pfad 80" class="cls-1" d="M65.619,174.327H48.663a.554.554,0,1,0,0,1.108H65.619a.554.554,0,0,0,0-1.108Z" transform="translate(-44.554 -161.445)"/>
  <path id="Pfad_81" data-name="Pfad 81" class="cls-1" d="M393.554,159.327a1.663,1.663,0,1,0,1.663,1.663A1.665,1.665,0,0,0,393.554,159.327Zm0,2.217a.554.554,0,1,1,.554-.554A.555.555,0,0,1,393.554,161.544Z" transform="translate(-362.932 -147.553)"/>
  <path id="Pfad_82" data-name="Pfad 82" class="cls-1" d="M327.336,159.327A1.663,1.663,0,1,0,329,160.99,1.665,1.665,0,0,0,327.336,159.327Zm0,2.217a.554.554,0,1,1,.554-.554A.555.555,0,0,1,327.336,161.544Z" transform="translate(-301.607 -147.553)"/>
  <path id="Pfad_83" data-name="Pfad 83" class="cls-1" d="M33.094,126.218H1.637A1.639,1.639,0,0,0,0,127.855V132.8a1.639,1.639,0,0,0,1.637,1.637H33.094a1.639,1.639,0,0,0,1.637-1.637v-4.945A1.639,1.639,0,0,0,33.094,126.218Zm.528,6.582a.529.529,0,0,1-.528.528H1.637a.529.529,0,0,1-.528-.528v-4.945a.529.529,0,0,1,.528-.528H33.094a.529.529,0,0,1,.528.528Z" transform="translate(0 -116.891)"/>
  <path id="Pfad_84" data-name="Pfad 84" class="cls-1" d="M65.619,300.545H48.663a.554.554,0,1,0,0,1.108H65.619a.554.554,0,1,0,0-1.108Z" transform="translate(-44.554 -278.336)"/>
  <path id="Pfad_85" data-name="Pfad 85" class="cls-1" d="M393.554,285.545a1.663,1.663,0,1,0,1.663,1.663A1.665,1.665,0,0,0,393.554,285.545Zm0,2.217a.554.554,0,1,1,.554-.554A.555.555,0,0,1,393.554,287.762Z" transform="translate(-362.932 -264.444)"/>
  <path id="Pfad_86" data-name="Pfad 86" class="cls-1" d="M327.336,285.545A1.663,1.663,0,1,0,329,287.208,1.665,1.665,0,0,0,327.336,285.545Zm0,2.217a.554.554,0,1,1,.554-.554A.555.555,0,0,1,327.336,287.762Z" transform="translate(-301.607 -264.444)"/>
  <path id="Pfad_87" data-name="Pfad 87" class="cls-1" d="M33.094,252.436H1.637A1.639,1.639,0,0,0,0,254.073v4.945a1.639,1.639,0,0,0,1.637,1.637H33.094a1.639,1.639,0,0,0,1.637-1.637v-4.945A1.639,1.639,0,0,0,33.094,252.436Zm.528,6.582a.529.529,0,0,1-.528.528H1.637a.529.529,0,0,1-.528-.528v-4.945a.529.529,0,0,1,.528-.528H33.094a.529.529,0,0,1,.528.528Z" transform="translate(0 -233.782)"/>
  <path id="Pfad_88" data-name="Pfad 88" class="cls-1" d="M34.177,382.448a.554.554,0,0,0,0-1.108H21.633a.554.554,0,0,0-.547-.469H19.632v-1.663a.554.554,0,1,0-1.108,0v2.217a.554.554,0,0,0,.554.554h1.454V384.3H14.2v-2.316h2.662a.554.554,0,0,0,0-1.108h-.654v-1.663a.554.554,0,1,0-1.108,0v1.663H13.645a.554.554,0,0,0-.547.469H.554a.554.554,0,0,0,0,1.108H13.09v1.108H.554a.554.554,0,1,0,0,1.108H13.09v.185a.554.554,0,0,0,.554.554h7.442a.554.554,0,0,0,.554-.554v-.185H34.177a.554.554,0,1,0,0-1.108H21.641v-1.108Z" transform="translate(0 -350.673)"/>
  <path id="Pfad_89" data-name="Pfad 89" class="cls-1" d="M65.619,48.109H48.663a.554.554,0,1,0,0,1.108H65.619a.554.554,0,0,0,0-1.108Z" transform="translate(-44.554 -44.554)"/>
  <path id="Pfad_90" data-name="Pfad 90" class="cls-1" d="M393.554,33.109a1.663,1.663,0,1,0,1.663,1.663A1.665,1.665,0,0,0,393.554,33.109Zm0,2.217a.554.554,0,1,1,.554-.554A.555.555,0,0,1,393.554,35.326Z" transform="translate(-362.932 -30.662)"/>
  <path id="Pfad_91" data-name="Pfad 91" class="cls-1" d="M327.336,33.109A1.663,1.663,0,1,0,329,34.772,1.665,1.665,0,0,0,327.336,33.109Zm0,2.217a.554.554,0,1,1,.554-.554A.555.555,0,0,1,327.336,35.326Z" transform="translate(-301.607 -30.662)"/>
</svg>
