<svg xmlns="http://www.w3.org/2000/svg" viewBox="0 0 30.918 22.697">
  <defs>
    <style>
      .cls-1 {
        fill: #60a7fc;
      }
    </style>
  </defs>
  <g id="team" transform="translate(0 -68.066)">
    <g id="Gruppe_58" data-name="Gruppe 58" transform="translate(23.717 77.751)">
      <g id="Gruppe_57" data-name="Gruppe 57">
        <path id="Pfad_30" data-name="Pfad 30" class="cls-1" d="M396.312,228.981a8.837,8.837,0,0,0-3.108-.532.453.453,0,1,0,0,.906,7.82,7.82,0,0,1,2.7.436.453.453,0,0,0,.405-.81Z" transform="translate(-392.751 -228.449)"/>
      </g>
    </g>
    <g id="Gruppe_60" data-name="Gruppe 60" transform="translate(0 68.066)">
      <g id="Gruppe_59" data-name="Gruppe 59">
        <path id="Pfad_31" data-name="Pfad 31" class="cls-1" d="M29.536,84.731l-1.87-.534a.19.19,0,0,1-.137-.182v-.624a3.4,3.4,0,0,0,.433-.355,3.332,3.332,0,0,0,1.02-2.41v-.862l.181-.362a2.889,2.889,0,0,0,.3-1.285V75.783a.453.453,0,0,0-.453-.453H24.654A2.877,2.877,0,0,0,21.78,78.2v.027a2.4,2.4,0,0,0,.252,1.069l.232.464v.74a3.534,3.534,0,0,0,1.453,2.857v.654c0,.1,0,.143-.374.25l-.913.261-2.64-.96a.452.452,0,0,0-.123-.347l-.844-.886V80.844c.089-.073.177-.149.262-.229a5.316,5.316,0,0,0,1.675-3.864V75.563a5.235,5.235,0,0,0,.484-2.2V68.519a.453.453,0,0,0-.453-.453h-6.78a4.332,4.332,0,0,0-4.327,4.327v.969a5.235,5.235,0,0,0,.484,2.2v1.022a5.534,5.534,0,0,0,1.937,4.224v1.523l-.844.886a.452.452,0,0,0-.123.347L8.353,84.578a2.375,2.375,0,0,0-.56.293l-.438-.219a3.459,3.459,0,0,0,1.735-1.4.453.453,0,0,0,0-.405,8.046,8.046,0,0,1-.4-2.812c-.011-.32-.021-.623-.04-.892A3.94,3.94,0,0,0,4.811,75.33,3.94,3.94,0,0,0,.97,79.14c-.019.269-.029.572-.04.892a8.046,8.046,0,0,1-.4,2.811.453.453,0,0,0,0,.405,3.459,3.459,0,0,0,1.737,1.4l-1.215.608A1.9,1.9,0,0,0,0,86.964V90.31a.453.453,0,0,0,.906,0V86.964a.994.994,0,0,1,.553-.894l1.513-.757.526.5a1.9,1.9,0,0,0,2.625,0l.526-.5.493.247a2.385,2.385,0,0,0-.364,1.264V90.31a.453.453,0,0,0,.906,0V86.824a1.489,1.489,0,0,1,.977-1.395L11.6,84.361,12.823,86.2a.934.934,0,0,0,.687.413q.047,0,.093,0a.933.933,0,0,0,.662-.275l.746-.746V90.31a.453.453,0,0,0,.906,0V85.593l.746.746a.933.933,0,0,0,.662.275q.046,0,.093,0a.934.934,0,0,0,.687-.413l1.223-1.835,2.938,1.068a1.489,1.489,0,0,1,.977,1.395V90.31a.453.453,0,0,0,.906,0V86.825a2.394,2.394,0,0,0-.67-1.657l.112-.032a2.483,2.483,0,0,0,.421-.152L25.17,86.14V90.31a.453.453,0,0,0,.906,0V86.14l1.148-1.148a1.077,1.077,0,0,0,.193.077l1.871.534a1,1,0,0,1,.725.961V90.31a.453.453,0,0,0,.906,0V86.564A1.914,1.914,0,0,0,29.536,84.731Zm-26.63-.8A3.256,3.256,0,0,1,1.452,83a4.992,4.992,0,0,0,.258-1.084,3.377,3.377,0,0,0,1.2,1.475ZM5.5,85.157a1,1,0,0,1-1.378,0l-.421-.4a.937.937,0,0,0,.11-.442v-.483a3.368,3.368,0,0,0,2,0v.482a.937.937,0,0,0,.11.442Zm-.689-2.079a2.455,2.455,0,0,1-2.453-2.453.45.45,0,0,0-.527-.446l0-.117c.01-.311.02-.606.038-.858a3.362,3.362,0,0,1,.916-2.112,2.814,2.814,0,0,1,4.045,0A3.362,3.362,0,0,1,7.749,79.2c.018.252.028.546.038.858l0,.081a4.069,4.069,0,0,0-2.237-1.635,5.684,5.684,0,0,0-1.723-.273.453.453,0,0,0-.313.138l-.817.847a.453.453,0,1,0,.652.629l.68-.705a3.664,3.664,0,0,1,3.2,1.861A2.447,2.447,0,0,1,4.811,83.078Zm1.905.855v-.54a3.35,3.35,0,0,0,1.2-1.476A4.986,4.986,0,0,0,8.17,83,3.271,3.271,0,0,1,6.717,83.933Zm4.358-7.347V75.462a.453.453,0,0,0-.045-.2,4.344,4.344,0,0,1-.439-1.9v-.968a3.425,3.425,0,0,1,3.421-3.421h6.327v4.39a4.344,4.344,0,0,1-.439,1.9.453.453,0,0,0-.045.2v1.29a4.348,4.348,0,0,1-1.388,3.2,4.506,4.506,0,0,1-.348.294l-.008.006a4.355,4.355,0,0,1-2.939.877A4.486,4.486,0,0,1,11.075,76.585Zm2.55,9.113a.031.031,0,0,1-.048,0l-1.409-2.113.453-.476,2.137,1.461Zm1.84-1.748-2.453-1.676v-.845a5.1,5.1,0,0,0,2.1.607q.179.012.356.012a5.246,5.246,0,0,0,2.448-.6v.827Zm1.888,1.743a.029.029,0,0,1-.023.014A.028.028,0,0,1,17.3,85.7l-1.133-1.133L18.308,83.1l.453.476Zm8.27-.382-1.028-1.028a1.243,1.243,0,0,0,.028-.269v-.191a3.175,3.175,0,0,0,.9.158l.1,0a3.364,3.364,0,0,0,1-.151v.182a1.083,1.083,0,0,0,.033.264Zm1.708-2.926a2.434,2.434,0,0,1-1.784.691A2.535,2.535,0,0,1,23.17,80.5v-.847a.452.452,0,0,0-.048-.2l-.28-.56a1.492,1.492,0,0,1-.157-.664V78.2a1.971,1.971,0,0,1,1.968-1.968h3.905v1.881a1.979,1.979,0,0,1-.208.88l-.229.457a.453.453,0,0,0-.048.2v.968A2.433,2.433,0,0,1,27.33,82.385Z" transform="translate(0 -68.066)"/>
      </g>
    </g>
    <g id="Gruppe_62" data-name="Gruppe 62" transform="translate(28.075 86.952)">
      <g id="Gruppe_61" data-name="Gruppe 61">
        <path id="Pfad_32" data-name="Pfad 32" class="cls-1" d="M465.376,380.814a.453.453,0,0,0-.453.453v2.905a.453.453,0,1,0,.906,0v-2.905A.453.453,0,0,0,465.376,380.814Z" transform="translate(-464.923 -380.814)"/>
      </g>
    </g>
    <g id="Gruppe_64" data-name="Gruppe 64" transform="translate(1.937 87.55)">
      <g id="Gruppe_63" data-name="Gruppe 63">
        <path id="Pfad_33" data-name="Pfad 33" class="cls-1" d="M32.53,390.728a.453.453,0,0,0-.453.453v2.307a.453.453,0,1,0,.906,0v-2.307A.453.453,0,0,0,32.53,390.728Z" transform="translate(-32.077 -390.728)"/>
      </g>
    </g>
    <g id="Gruppe_66" data-name="Gruppe 66" transform="translate(11.622 72.18)">
      <g id="Gruppe_65" data-name="Gruppe 65">
        <path id="Pfad_34" data-name="Pfad 34" class="cls-1" d="M200.013,137.548c-1.713-1.713-5.3-1.385-6.758-1.165a.93.93,0,0,0-.794.926v1.043a.453.453,0,0,0,.906,0v-1.043a.03.03,0,0,1,.024-.031,14.308,14.308,0,0,1,2.942-.144,4.675,4.675,0,0,1,3.04,1.054.453.453,0,1,0,.64-.64Z" transform="translate(-192.46 -136.203)"/>
      </g>
    </g>
    <g id="Gruppe_68" data-name="Gruppe 68" transform="translate(9.685 87.92)">
      <g id="Gruppe_67" data-name="Gruppe 67">
        <path id="Pfad_35" data-name="Pfad 35" class="cls-1" d="M160.837,396.853a.453.453,0,0,0-.453.453v1.937a.453.453,0,0,0,.906,0v-1.937A.453.453,0,0,0,160.837,396.853Z" transform="translate(-160.384 -396.853)"/>
      </g>
    </g>
    <g id="Gruppe_70" data-name="Gruppe 70" transform="translate(20.339 87.92)">
      <g id="Gruppe_69" data-name="Gruppe 69">
        <path id="Pfad_36" data-name="Pfad 36" class="cls-1" d="M337.259,396.853a.453.453,0,0,0-.453.453v1.937a.453.453,0,0,0,.906,0v-1.937A.453.453,0,0,0,337.259,396.853Z" transform="translate(-336.806 -396.853)"/>
      </g>
    </g>
  </g>
</svg>
