<svg xmlns="http://www.w3.org/2000/svg" viewBox="0 0 23.178 17.106">
  <defs>
    <style>
      .cls-1 {
        fill: #fff;
      }
    </style>
  </defs>
  <path id="_006-undo" data-name="006-undo" class="cls-1" d="M22.654,52.782H20.8a9.317,9.317,0,0,0-18.633.035v6L.893,57.541a.523.523,0,0,0-.74.74l2.171,2.171,0,0c.012.012.024.022.036.033l.018.014.023.017.022.013.022.013.023.011.024.011.023.008.026.009.023.006.026.006.027,0,.023,0,.052,0,.052,0,.023,0,.027,0,.026-.006.023-.006.026-.009.023-.008.024-.011.023-.011.022-.013.022-.013.023-.017.018-.014q.019-.015.036-.033l0,0,2.171-2.171a.523.523,0,0,0-.74-.74L3.217,58.819v-6a8.27,8.27,0,0,1,16.54-.035H17.908a.523.523,0,0,0,0,1.047h4.746a.523.523,0,0,0,0-1.047Z" transform="translate(0.001 -43.5)"/>
</svg>
